<svg width="512" height="512" viewBox="0 0 512 512" fill="none" xmlns="http://www.w3.org/2000/svg">
<rect width="512" height="512" rx="256" fill="black"/>
<path d="M214.144 322.624C216.96 323.136 220.416 323.648 224.512 324.16C228.608 324.416 232.448 324.544 236.032 324.544C244.736 324.544 252.672 323.264 259.84 320.704C267.264 318.144 273.536 314.176 278.656 308.8C284.032 303.424 288.128 296.512 290.944 288.064C294.016 279.36 295.552 268.992 295.552 256.96C295.552 233.92 290.176 216.64 279.424 205.12C268.672 193.344 254.336 187.456 236.416 187.456C232.832 187.456 229.12 187.584 225.28 187.84C221.696 188.096 217.984 188.48 214.144 188.992V322.624ZM235.648 378.688C231.296 378.688 226.304 378.56 220.672 378.304C215.04 378.048 209.152 377.536 203.008 376.768C197.12 376 191.104 374.976 184.96 373.696C179.072 372.672 173.568 371.136 168.448 369.088C154.368 363.712 147.328 354.368 147.328 341.056V161.728C147.328 156.352 148.736 152.256 151.552 149.44C154.624 146.368 158.72 143.936 163.84 142.144C174.848 138.56 186.496 136.256 198.784 135.232C211.072 133.952 222.08 133.312 231.808 133.312C251.776 133.312 269.824 135.744 285.952 140.608C302.336 145.472 316.288 153.024 327.808 163.264C339.584 173.248 348.672 185.92 355.072 201.28C361.472 216.64 364.672 234.816 364.672 255.808C364.672 276.288 361.6 294.208 355.456 309.568C349.312 324.672 340.48 337.472 328.96 347.968C317.696 358.208 304.128 365.888 288.256 371.008C272.384 376.128 254.848 378.688 235.648 378.688Z" fill="white"/>
</svg>
